<svg xmlns="http://www.w3.org/2000/svg" width="22.1" height="21.95" viewBox="0 0 22.1 21.95">
  <path id="affe775c8475d7a197900e4ac5855d1f" d="M23,9.1V8.2h-.1l-.1-.1L22.7,8,12.2,1a.446.446,0,0,0-.5,0L1.2,8l-.1.1L1,8.2a.1.1,0,0,1-.1.1v7.2a.1.1,0,0,0,.1.1l.1.1.1.1,10.4,7a.446.446,0,0,0,.5,0l10.5-7,.1-.1.1-.1a.1.1,0,0,1,.1-.1v-.1L23,9.1ZM12.5,7.8V3.2c0-.2.1-.4.3-.4a.446.446,0,0,1,.5,0L21,8a.52.52,0,0,1,.2.4v.2A.52.52,0,0,1,21,9l-3.5,2.3a.5.5,0,0,1-.6,0L12.6,8.4a.52.52,0,0,1-.2-.4V7.8Zm-9.7.6A.52.52,0,0,1,3,8l7.7-5.2a.446.446,0,0,1,.5,0,.536.536,0,0,1,.3.4V8a.52.52,0,0,1-.2.4L7,11.2a.367.367,0,0,1-.3.1.367.367,0,0,1-.3-.1L3,8.9a.52.52,0,0,1-.2-.4V8.4Zm-.3,5.8c-.1,0-.2,0-.2-.1a.536.536,0,0,1-.3-.4V10.4c0-.2.1-.4.3-.4a.446.446,0,0,1,.5,0l2.5,1.7a.5.5,0,0,1,0,.8L2.8,14.2c-.1-.1-.2,0-.3,0Zm9,6.5c0,.2-.1.4-.3.4a.349.349,0,0,0-.2.1.367.367,0,0,1-.3-.1L3,15.9a.5.5,0,0,1,0-.8l3.5-2.3a.637.637,0,0,1,.6,0l4.3,2.9a.52.52,0,0,1,.2.4v4.6Zm.5-5.9a.367.367,0,0,1-.3-.1L8.2,12.4A.52.52,0,0,1,8,12v-.2a.52.52,0,0,1,.2-.4l3.5-2.3a.637.637,0,0,1,.6,0l3.5,2.3a.52.52,0,0,1,.2.4V12a.52.52,0,0,1-.2.4l-3.5,2.3A.367.367,0,0,1,12,14.8Zm9,1.1-7.7,5.2a.367.367,0,0,1-.3.1c-.1,0-.2,0-.2-.1a.536.536,0,0,1-.3-.4V16.1a.52.52,0,0,1,.2-.4L17,12.8a.637.637,0,0,1,.6,0l3.5,2.3a.52.52,0,0,1,.2.4,1.38,1.38,0,0,1-.3.4Zm1-2.2c0,.2-.1.4-.3.4a.349.349,0,0,0-.2.1.367.367,0,0,1-.3-.1l-2.5-1.7a.5.5,0,0,1,0-.8l2.5-1.7a.446.446,0,0,1,.5,0,.536.536,0,0,1,.3.4v3.4Z" transform="translate(-0.9 -0.925)" fill="#31694a"/>
</svg>
