<svg xmlns="http://www.w3.org/2000/svg" width="1922" height="24.241" viewBox="0 0 1922 24.241">
  <g id="netnexglobal_accent_strip" transform="translate(-2293 594.019)">
    <rect id="Rectangle_1210" data-name="Rectangle 1210" width="1920" height="24.216" transform="translate(2295 -594.007)" fill="#1a2849"/>
    <path id="Path_4748" data-name="Path 4748" d="M264.376,3.935l102.959.012s3.388,6.775,3.806,7.015V10.9l3.865-6.95h7.257s-2,3.062-2.926,4.522c-1.547,2.441-4.653,7.225-4.653,7.225s-3.29,3.908-3.544,4.4H377.5l5.191,8.072s-4.348-.131-6.813-.131c-.27-.641-4.809-7.809-4.809-7.809l-4.522,7.941H264.376Z" transform="translate(2031.624 -597.941)" fill="#3f9b68" fill-rule="evenodd" opacity="0.15"/>
    <path id="Path_4746" data-name="Path 4746" d="M264.376,3.935l102.959.012s3.388,6.775,3.806,7.015V10.9l3.865-6.95h7.257s-2,3.062-2.926,4.522c-1.547,2.441-4.653,7.225-4.653,7.225s-3.29,3.908-3.544,4.4H377.5l5.191,8.072s-4.348-.131-6.813-.131c-.27-.641-4.809-7.809-4.809-7.809l-4.522,7.941H264.376Z" transform="translate(2028.624 -597.954)" fill="#295b56" fill-rule="evenodd"/>
    <path id="Path_4747" data-name="Path 4747" d="M273.376,3.935l97.223.012s3.388,6.775,3.806,7.015V10.9l3.865-6.95h7.257s-2,3.062-2.926,4.522c-1.547,2.441-4.653,7.225-4.653,7.225s-3.29,3.908-3.544,4.4h6.359l5.191,8.072s-4.348-.131-6.813-.131c-.27-.641-4.809-7.809-4.809-7.809l-4.522,7.941H273.376Z" transform="translate(2021.624 -597.954)" fill="#3f9b68" fill-rule="evenodd"/>
  </g>
</svg>
