<svg xmlns="http://www.w3.org/2000/svg" width="24.663" height="25.196" viewBox="0 0 24.663 25.196">
  <g id="_148209637ce2951460617cc7437f6707" data-name="148209637ce2951460617cc7437f6707" transform="translate(-1.837 -1.5)">
    <g id="Group_731" data-name="Group 731" transform="translate(2.337 2)">
      <path id="Path_1514" data-name="Path 1514" d="M4.513,2H25.569V17.6H4.513Z" transform="translate(-3.425 -2)" fill="none" stroke="#31694a" stroke-linecap="round" stroke-linejoin="round" stroke-width="1"/>
      <path id="Path_1515" data-name="Path 1515" d="M2.337,33.205H26" transform="translate(-2.337 -17.603)" fill="none" stroke="#31694a" stroke-linecap="round" stroke-linejoin="round" stroke-width="1"/>
      <path id="Path_1516" data-name="Path 1516" d="M2.337,2H26" transform="translate(-2.337 -2)" fill="none" stroke="#31694a" stroke-linecap="round" stroke-linejoin="round" stroke-width="1"/>
      <path id="Path_1517" data-name="Path 1517" d="M10.386,17.6l4.856-4.856,3.82,3.82L26,9.629" transform="translate(-6.361 -5.814)" fill="none" stroke="#31694a" stroke-linecap="round" stroke-linejoin="round" stroke-width="1"/>
      <g id="Group_730" data-name="Group 730" transform="translate(3.699 15.6)">
        <path id="Path_1518" data-name="Path 1518" d="M36.488,41.6l-5.777-8.4" transform="translate(-20.223 -33.2)" fill="none" stroke="#31694a" stroke-linecap="round" stroke-linejoin="round" stroke-width="1"/>
        <path id="Path_1519" data-name="Path 1519" d="M15.512,33.2,9.735,41.6" transform="translate(-9.735 -33.2)" fill="none" stroke="#31694a" stroke-linecap="round" stroke-linejoin="round" stroke-width="1"/>
      </g>
    </g>
    <g id="Group_733" data-name="Group 733" transform="translate(2.337 2)">
      <path id="Path_1520" data-name="Path 1520" d="M4.513,2H25.569V17.6H4.513Z" transform="translate(-3.425 -2)" fill="none" stroke="#31694a" stroke-linecap="round" stroke-linejoin="round" stroke-width="1"/>
      <path id="Path_1521" data-name="Path 1521" d="M2.337,33.205H26" transform="translate(-2.337 -17.603)" fill="none" stroke="#31694a" stroke-linecap="round" stroke-linejoin="round" stroke-width="1"/>
      <path id="Path_1522" data-name="Path 1522" d="M2.337,2H26" transform="translate(-2.337 -2)" fill="none" stroke="#31694a" stroke-linecap="round" stroke-linejoin="round" stroke-width="1"/>
      <path id="Path_1523" data-name="Path 1523" d="M10.386,17.6l4.856-4.856,3.82,3.82L26,9.629" transform="translate(-6.361 -5.814)" fill="none" stroke="#31694a" stroke-linecap="round" stroke-linejoin="round" stroke-width="1"/>
      <g id="Group_732" data-name="Group 732" transform="translate(3.699 15.6)">
        <path id="Path_1524" data-name="Path 1524" d="M36.488,41.6l-5.777-8.4" transform="translate(-20.223 -33.2)" fill="none" stroke="#31694a" stroke-linecap="round" stroke-linejoin="round" stroke-width="1"/>
        <path id="Path_1525" data-name="Path 1525" d="M15.512,33.2,9.735,41.6" transform="translate(-9.735 -33.2)" fill="none" stroke="#31694a" stroke-linecap="round" stroke-linejoin="round" stroke-width="1"/>
      </g>
    </g>
  </g>
</svg>
